<?xml version="1.0" encoding="UTF-8" standalone="no"?>
<!-- Created with Inkscape (http://www.inkscape.org/) -->

<svg
   width="75.000069mm"
   height="75.000076mm"
   viewBox="0 0 75.000068 75.000077"
   version="1.1"
   id="svg1"
   xmlns="http://www.w3.org/2000/svg"
   xmlns:svg="http://www.w3.org/2000/svg">
  <defs
     id="defs1" />
  <g
     id="layer1"
     style="display:inline">
    <path
       id="path1"
       style="display:inline;opacity:1;fill:#000000;fill-opacity:1;stroke-width:0;stroke-linecap:round;stroke-linejoin:round;stroke-opacity:0.436199"
       d="m 37.500037,0 a 37.5,37.5 0 0 0 -11.36003,1.8153931 2.50025,2.50025 0 0 1 1.166853,1.2180135 l 9.808187,23.4140744 a 2.5,2.5 0 0 1 -1.339453,3.273186 2.5,2.5 0 0 1 -3.271635,-1.33997 L 25.08219,10.67015 6.4512858,58.439844 A 37.5,37.5 0 0 0 22.182625,71.695365 L 49.257975,3.0349569 A 2.50025,2.50025 0 0 1 49.918917,2.1213175 37.5,37.5 0 0 0 37.500037,0 Z M 22.661666,3.1129883 A 37.5,37.5 0 0 0 0,37.500037 37.5,37.5 0 0 0 3.2840373,52.797294 Z m 31.649231,0.8790161 9.388574,22.4063846 a 2.5,2.5 0 0 1 -1.33997,3.273702 2.5,2.5 0 0 1 -3.271635,-1.33997 L 51.652144,10.587984 26.874845,73.423425 A 37.5,37.5 0 0 0 37.500037,75.000073 37.5,37.5 0 0 0 70.779142,54.765649 L 65.228577,40.777356 49.669836,40.929801 a 2.5,2.5 0 0 1 -2.52336,-2.474784 2.5,2.5 0 0 1 2.474785,-2.525427 l 17.273364,-0.170016 a 2.50025,2.50025 0 0 1 2.34766,1.578199 l 4.241602,10.69082 A 37.5,37.5 0 0 0 75.000073,37.500037 37.5,37.5 0 0 0 54.310897,3.9920044 Z" />
  </g>
</svg>
