<?xml version="1.0" encoding="UTF-8" standalone="no"?>
<!-- Created with Inkscape (http://www.inkscape.org/) -->

<svg
   width="78.055183mm"
   height="78.055702mm"
   viewBox="0 0 78.055183 78.055703"
   version="1.1"
   id="svg1"
   sodipodi:docname="logoCutout.svg"
   inkscape:export-filename="../../svg/full_icon_cutout.svg"
   inkscape:export-xdpi="96"
   inkscape:export-ydpi="96"
   inkscape:version="1.3.1 (91b66b0783, 2023-11-16)"
   xmlns:inkscape="http://www.inkscape.org/namespaces/inkscape"
   xmlns:sodipodi="http://sodipodi.sourceforge.net/DTD/sodipodi-0.dtd"
   xmlns="http://www.w3.org/2000/svg"
   xmlns:svg="http://www.w3.org/2000/svg">
  <sodipodi:namedview
     id="namedview1"
     pagecolor="#ffffff"
     bordercolor="#000000"
     borderopacity="0.25"
     inkscape:showpageshadow="2"
     inkscape:pageopacity="0.0"
     inkscape:pagecheckerboard="0"
     inkscape:deskcolor="#d1d1d1"
     inkscape:document-units="mm"
     inkscape:zoom="2.8168186"
     inkscape:cx="147.15183"
     inkscape:cy="151.05694"
     inkscape:window-width="2504"
     inkscape:window-height="1011"
     inkscape:window-x="0"
     inkscape:window-y="32"
     inkscape:window-maximized="1"
     inkscape:current-layer="layer1" />
  <defs
     id="defs1" />
  <g
     inkscape:groupmode="layer"
     id="layer1"
     inkscape:label="Layer 1"
     style="display:inline">
    <path
       id="path1"
       style="display:inline;opacity:1;fill:#000000;fill-opacity:1;stroke-width:0;stroke-linecap:round;stroke-linejoin:round;stroke-opacity:0.436199"
       d="M 37.500037 0 A 37.5 37.5 0 0 0 26.140007 1.8153931 A 2.50025 2.50025 0 0 1 27.30686 3.0334066 L 37.115047 26.447481 A 2.5 2.5 0 0 1 35.775594 29.720667 A 2.5 2.5 0 0 1 32.503959 28.380697 L 25.08219 10.67015 L 6.4512858 58.439844 A 37.5 37.5 0 0 0 22.182625 71.695365 L 49.257975 3.0349569 A 2.50025 2.50025 0 0 1 49.918917 2.1213175 A 37.5 37.5 0 0 0 37.500037 0 z M 22.661666 3.1129883 A 37.5 37.5 0 0 0 0 37.500037 A 37.5 37.5 0 0 0 3.2840373 52.797294 L 22.661666 3.1129883 z M 54.310897 3.9920044 L 63.699471 26.398389 A 2.5 2.5 0 0 1 62.359501 29.672091 A 2.5 2.5 0 0 1 59.087866 28.332121 L 51.652144 10.587984 L 26.874845 73.423425 A 37.5 37.5 0 0 0 37.500037 75.000073 A 37.5 37.5 0 0 0 70.779142 54.765649 L 65.228577 40.777356 L 49.669836 40.929801 A 2.5 2.5 0 0 1 47.146476 38.455017 A 2.5 2.5 0 0 1 49.621261 35.92959 L 66.894625 35.759574 A 2.50025 2.50025 0 0 1 69.242285 37.337773 L 73.483887 48.028593 A 37.5 37.5 0 0 0 75.000073 37.500037 A 37.5 37.5 0 0 0 54.310897 3.9920044 z " />
  </g>
</svg>
